<!DOCTYPE svg PUBLIC "-//W3C//DTD SVG 1.1//EN" "http://www.w3.org/Graphics/SVG/1.1/DTD/svg11.dtd">
<!-- Uploaded to: SVG Repo, www.svgrepo.com, Transformed by: SVG Repo Mixer Tools -->
<svg width="800px" height="800px" viewBox="-0.32 -0.32 32.64 32.64" id="Lager_29" data-name="Lager 29" xmlns="http://www.w3.org/2000/svg" fill="#9c2270" stroke="#9c2270" stroke-width="0.00032">
<g id="SVGRepo_bgCarrier" stroke-width="0"/>
<g id="SVGRepo_tracerCarrier" stroke-linecap="round" stroke-linejoin="round"/>
<g id="SVGRepo_iconCarrier"> <g id="Group_8" data-name="Group 8"> <path id="Path_33" data-name="Path 33" d="M20.587,14.613,18,17.246V9.98A1.979,1.979,0,0,0,16.02,8h-.04A1.979,1.979,0,0,0,14,9.98v6.963l-.26-.042-2.248-2.227a2.091,2.091,0,0,0-2.657-.293A1.973,1.973,0,0,0,8.58,17.4l6.074,6.016a2.017,2.017,0,0,0,2.833,0l5.934-6a1.97,1.97,0,0,0,0-2.806A2.016,2.016,0,0,0,20.587,14.613Z" fill="#9c2270"/> <path id="Path_34" data-name="Path 34" d="M16,0A16,16,0,1,0,32,16,16,16,0,0,0,16,0Zm0,28A12,12,0,1,1,28,16,12.013,12.013,0,0,1,16,28Z" fill="#9c2270"/> </g> </g>
</svg>