<!DOCTYPE svg PUBLIC "-//W3C//DTD SVG 1.1//EN" "http://www.w3.org/Graphics/SVG/1.1/DTD/svg11.dtd">
<!-- Uploaded to: SVG Repo, www.svgrepo.com, Transformed by: SVG Repo Mixer Tools -->
<svg fill="#9c2270" version="1.1" id="Capa_1" xmlns="http://www.w3.org/2000/svg" xmlns:xlink="http://www.w3.org/1999/xlink" width="800px" height="800px" viewBox="-9.24 -9.24 110.90 110.90" xml:space="preserve" transform="matrix(1, 0, 0, 1, 0, 0)rotate(270)" stroke="#9c2270" stroke-width="0.27726599999999996">
<g id="SVGRepo_bgCarrier" stroke-width="0"/>
<g id="SVGRepo_tracerCarrier" stroke-linecap="round" stroke-linejoin="round" stroke="#CCCCCC" stroke-width="0.184844"/>
<g id="SVGRepo_iconCarrier"> <g> <g> <path d="M83.131,18.397C83.131,10.172,78.367,0,72.495,0c-5.883,0-10.644,10.172-10.644,18.397c0,6.76,3.241,10.058,7.649,11.035 c1.229,1.795,1.242,2.271,1.242,7.005c0,4.51-0.452,15.823-1.257,19.741c-1.358,0.185-2.248,0.5-2.248,0.855 c0,0.308,0.681,0.582,1.752,0.77c0,0.086,0,0.172-0.007,0.25c-1.064,0.195-1.745,0.466-1.745,0.777 c0,0.294,0.646,0.558,1.667,0.753c-0.377,4.928-1.523,11.584-1.523,16.231c0,10.581,2.283,16.607,5.113,16.607 s5.105-6.033,5.105-16.607c0-4.647-1.136-11.304-1.516-16.231c1.02-0.195,1.666-0.459,1.666-0.753 c0-0.312-0.681-0.582-1.752-0.777c0-0.078,0-0.164-0.007-0.25c1.078-0.188,1.759-0.462,1.759-0.77c0-0.355-0.89-0.66-2.248-0.855 c-0.811-3.918-1.256-15.23-1.256-19.741c0-4.735,0.007-5.21,1.242-6.999C79.897,28.462,83.131,25.158,83.131,18.397z"/> <path d="M52.201,57.034c0-0.308-0.681-0.582-1.759-0.773V0C45.333,3.183,36.72,17.609,36.72,34.899 c0,9.088,6.861,9.676,7.025,21.307h0.01c-1.247,0.191-2.067,0.493-2.067,0.821c0,0.308,0.686,0.582,1.756,0.773 c-0.004,0.082-0.004,0.164-0.007,0.246c-1.066,0.198-1.749,0.466-1.749,0.773c0,0.302,0.645,0.562,1.662,0.76 c-0.375,4.921-1.514,11.581-1.514,16.228c0,10.582,2.284,16.611,5.109,16.611c2.826,0,5.109-6.036,5.109-16.611 c0-4.646-1.143-11.307-1.514-16.228c1.021-0.198,1.658-0.458,1.658-0.76c0-0.308-0.678-0.575-1.746-0.773 c-0.006-0.082-0.006-0.164-0.006-0.246C51.521,57.616,52.201,57.341,52.201,57.034z"/> <path d="M27.311,16.873c0,2.695-3.462,5.888-5.631,7.115V0h-3.504v23.988c-2.169-1.234-5.631-4.427-5.631-7.115V0.007L9.291,3.511 V14.9c0,6.543,3.035,12.048,7.226,14.043c1.662,2.298,1.662,2.298,1.662,7.495c0,4.51-0.448,15.823-1.261,19.741 c-1.356,0.185-2.243,0.5-2.243,0.855c0,0.308,0.687,0.582,1.756,0.77c-0.003,0.086-0.003,0.172-0.007,0.25 c-1.069,0.195-1.749,0.466-1.749,0.777c0,0.294,0.646,0.558,1.662,0.753c-0.375,4.928-1.514,11.584-1.514,16.231 c0,10.581,2.284,16.607,5.109,16.607c2.825,0,5.109-6.033,5.109-16.607c0-4.647-1.139-11.304-1.514-16.231 c1.013-0.195,1.662-0.459,1.662-0.753c0-0.312-0.683-0.582-1.749-0.777c-0.003-0.078-0.003-0.164-0.007-0.25 c1.07-0.188,1.756-0.462,1.756-0.77c0-0.355-0.89-0.66-2.243-0.855c-0.816-3.918-1.261-15.23-1.261-19.741 c0-5.2,0.388-5.551,1.662-7.506c4.19-1.994,7.226-7.495,7.226-14.038V3.504L27.317,0L27.311,16.873L27.311,16.873z"/> </g> </g> </g>
</svg>