<svg xmlns="http://www.w3.org/2000/svg" version="1.1" xmlns:xlink="http://www.w3.org/1999/xlink" xmlns:svgjs="http://svgjs.dev/svgjs" width="1500" height="1500" viewBox="0 0 1500 1500"><rect width="1500" height="1500" fill="#000000"></rect><g transform="matrix(0.6666666666666666,0,0,0.6666666666666666,249.39393939393938,564.6958818559731)"><svg viewBox="0 0 396 147" data-background-color="#ffffff" preserveAspectRatio="xMidYMid meet" height="556" width="1500" xmlns="http://www.w3.org/2000/svg" xmlns:xlink="http://www.w3.org/1999/xlink"><g id="tight-bounds" transform="matrix(1,0,0,1,0.2400000000000091,-0.011586239644003626)"><svg viewBox="0 0 395.52 147.023172479288" height="147.023172479288" width="395.52"><g><svg viewBox="0 0 660.8541859510179 245.65351679999995" height="147.023172479288" width="395.52"><g transform="matrix(1,0,0,1,263.356585951018,63.91021578942297)"><svg viewBox="0 0 397.4975999999999 117.83308522115401" height="117.83308522115401" width="397.4975999999999"><g id="textblocktransform"><svg viewBox="0 0 397.4975999999999 117.83308522115401" height="117.83308522115401" width="397.4975999999999" id="textblock"><g><rect width="397.4975999999999" height="6.762572415688909" x="0" y="82.95523704155089" fill="#ffffff" opacity="1" stroke-width="0" stroke="transparent" fill-opacity="1" class="rect-qz-0" data-fill-palette-color="primary" rx="1%" id="qz-0" data-palette-color="#631a87"></rect></g><g transform="matrix(1,0,0,1,0.9887999999999693,0)"><svg viewBox="0 0 395.52 74.98885592359275" height="74.98885592359275" width="395.52"><g transform="matrix(1,0,0,1,0,0)"><svg width="395.52" viewBox="2.5 -38 246.03 46.65" height="74.98885592359275" data-palette-color="#631a87"><path d="M28.35 8.65L25.7 8.65Q24.25 8.65 23.2 8.45 22.15 8.25 21.33 7.83 20.5 7.4 19.85 6.73 19.2 6.05 18.55 5.1L18.55 5.1 15.35 0.4Q12.4-0.05 10.05-1.48 7.7-2.9 6-5.18 4.3-7.45 3.4-10.55 2.5-13.65 2.5-17.45L2.5-17.45Q2.5-21.65 3.6-24.98 4.7-28.3 6.73-30.65 8.75-33 11.6-34.25 14.45-35.5 17.9-35.5L17.9-35.5Q21.35-35.5 24.2-34.25 27.05-33 29.08-30.65 31.1-28.3 32.2-24.98 33.3-21.65 33.3-17.45L33.3-17.45Q33.3-13.6 32.35-10.45 31.4-7.3 29.68-5 27.95-2.7 25.5-1.3 23.05 0.1 20 0.45L20 0.45 22.25 3.55Q22.8 4.35 23.28 4.88 23.75 5.4 24.28 5.73 24.8 6.05 25.4 6.2 26 6.35 26.85 6.35L26.85 6.35 28.35 6.35 28.35 8.65ZM17.9-2.05L17.9-2.05Q20.45-2.05 22.43-2.98 24.4-3.9 25.75-5.58 27.1-7.25 27.8-9.55 28.5-11.85 28.5-14.6L28.5-14.6 28.5-20.3Q28.5-23.05 27.8-25.35 27.1-27.65 25.75-29.33 24.4-31 22.43-31.93 20.45-32.85 17.9-32.85L17.9-32.85Q15.35-32.85 13.38-31.93 11.4-31 10.05-29.33 8.7-27.65 8-25.35 7.3-23.05 7.3-20.3L7.3-20.3 7.3-14.6Q7.3-11.85 8-9.55 8.7-7.25 10.05-5.58 11.4-3.9 13.38-2.98 15.35-2.05 17.9-2.05ZM49.7 0.6L49.7 0.6Q45.05 0.6 43.02-1.83 41-4.25 41-9.15L41-9.15 41-22.55 37.3-23.2 37.3-24.9 45.1-26.4 45.1-9.5Q45.1-2.25 51.15-2.25L51.15-2.25Q52.25-2.25 53.32-2.55 54.4-2.85 55.27-3.5 56.15-4.15 56.67-5.1 57.2-6.05 57.2-7.35L57.2-7.35 57.2-22.55 53.5-23.2 53.5-24.9 61.3-26.4 61.3-3.25 65-2.6 65-0.9 57.3 0.6 57.3-3.9 57.1-3.9Q56.8-3.15 56.17-2.35 55.55-1.55 54.62-0.9 53.7-0.25 52.45 0.18 51.2 0.6 49.7 0.6ZM75-31.75L75-31.75Q73.7-31.75 73.02-32.52 72.34-33.3 72.34-34.4L72.34-34.4 72.34-34.65Q72.34-35.75 73.02-36.52 73.7-37.3 75-37.3L75-37.3Q76.3-37.3 77-36.52 77.7-35.75 77.7-34.65L77.7-34.65 77.7-34.4Q77.7-33.3 77-32.52 76.3-31.75 75-31.75ZM69.25 0L69.25-2.3 72.95-2.3 72.95-22.55 69.25-23.2 69.25-24.9 77.05-26.4 77.05-2.3 80.75-2.3 80.75 0 69.25 0ZM96.49 0.6L96.49 0.6Q93.69 0.6 91.52-0.38 89.34-1.35 87.84-3.13 86.34-4.9 85.54-7.38 84.74-9.85 84.74-12.9L84.74-12.9Q84.74-16 85.62-18.5 86.49-21 88.09-22.75 89.69-24.5 91.92-25.45 94.14-26.4 96.84-26.4L96.84-26.4Q100.89-26.4 103.27-24.68 105.64-22.95 105.64-20.3L105.64-20.3Q105.64-18.7 104.82-17.8 103.99-16.9 102.54-16.9L102.54-16.9Q100.99-16.9 100.24-17.8 99.49-18.7 99.49-19.95L99.49-19.95Q99.49-21.05 100.04-21.85 100.59-22.65 101.59-23.1L101.59-23.1 101.59-23.25Q100.94-23.65 99.92-23.85 98.89-24.05 97.29-24.05L97.29-24.05Q95.54-24.05 94.07-23.4 92.59-22.75 91.54-21.58 90.49-20.4 89.89-18.82 89.29-17.25 89.29-15.4L89.29-15.4 89.29-11.7Q89.29-9.65 89.84-7.98 90.39-6.3 91.42-5.1 92.44-3.9 93.87-3.25 95.29-2.6 97.09-2.6L97.09-2.6Q100.14-2.6 101.89-3.88 103.64-5.15 104.69-7.2L104.69-7.2 106.29-6.15Q105.84-4.85 104.99-3.63 104.14-2.4 102.94-1.48 101.74-0.55 100.12 0.03 98.49 0.6 96.49 0.6ZM110.04 0L110.04-2.3 113.74-2.3 113.74-34.15 110.04-34.8 110.04-36.55 117.84-38 117.84-11.85 118.09-11.85 122.29-16.55 128.59-23.5 125.19-23.5 125.19-25.8 135.89-25.8 135.89-23.5 132.24-23.5 124.99-15.95 134.04-2.3 136.89-2.3 136.89 0 126.24 0 126.24-2.3 129.44-2.3 122.19-13.2 117.84-8.65 117.84-2.3 121.54-2.3 121.54 0 110.04 0ZM152.24 0.6L152.24 0.6Q149.09 0.6 147.11-0.38 145.14-1.35 144.34-3L144.34-3 144.09-3 144.09 0 140.49 0 140.49-10.25 144.09-10.25 144.09-7.95Q144.09-6.7 144.46-5.63 144.84-4.55 145.71-3.75 146.59-2.95 148.01-2.5 149.44-2.05 151.49-2.05L151.49-2.05Q155.84-2.05 157.76-3.9 159.69-5.75 159.69-8.85L159.69-8.85Q159.69-11.5 158.21-13 156.74-14.5 153.59-15.35L153.59-15.35 150.84-16.05Q146.19-17.25 143.64-19.65 141.09-22.05 141.09-26.25L141.09-26.25Q141.09-28.35 141.89-30.08 142.69-31.8 144.14-33 145.59-34.2 147.61-34.85 149.64-35.5 152.09-35.5L152.09-35.5Q154.94-35.5 156.76-34.63 158.59-33.75 159.34-32.2L159.34-32.2 159.64-32.2 159.64-34.9 163.24-34.9 163.24-25.15 159.64-25.15 159.64-27.45Q159.64-28.7 159.26-29.7 158.89-30.7 157.99-31.4 157.09-32.1 155.64-32.48 154.19-32.85 152.09-32.85L152.09-32.85Q148.59-32.85 146.84-31.25 145.09-29.65 145.09-27.05L145.09-27.05Q145.09-24.35 146.66-22.83 148.24-21.3 151.64-20.4L151.64-20.4 154.19-19.75Q158.74-18.55 161.19-16.15 163.64-13.75 163.64-9.85L163.64-9.85Q163.64-7.6 162.89-5.68 162.14-3.75 160.69-2.35 159.24-0.95 157.11-0.18 154.99 0.6 152.24 0.6ZM176.99 0.3L176.99 0.3Q174.34 0.3 173.34-0.78 172.34-1.85 172.34-4.45L172.34-4.45 172.34-23.35 169.04-23.35 169.04-25.8 169.49-25.8Q170.54-25.8 171.16-25.95 171.79-26.1 172.16-26.38 172.54-26.65 172.71-27.08 172.89-27.5 173.04-28.05L173.04-28.05 174.19-32.5 176.44-32.5 176.44-25.8 183.09-25.8 183.09-23.35 176.44-23.35 176.44-2.45 183.09-2.45 183.09-0.8Q182.64-0.55 181.96-0.35 181.29-0.15 180.46 0 179.64 0.15 178.74 0.23 177.84 0.3 176.99 0.3ZM194.68 0.6L194.68 0.6Q191.08 0.6 189.06-1.28 187.03-3.15 187.03-6.4L187.03-6.4Q187.03-8.25 187.63-9.68 188.23-11.1 189.61-12.05 190.98-13 193.18-13.5 195.38-14 198.53-14L198.53-14 202.23-14 202.23-17.8Q202.23-20.85 200.76-22.48 199.28-24.1 196.33-24.1L196.33-24.1Q195.03-24.1 193.93-23.88 192.83-23.65 192.13-23.25L192.13-23.25 192.13-23.15Q192.68-22.85 193.21-22.25 193.73-21.65 193.73-20.55L193.73-20.55Q193.73-19.25 192.98-18.53 192.23-17.8 190.98-17.8L190.98-17.8Q189.78-17.8 189.01-18.53 188.23-19.25 188.23-20.7L188.23-20.7Q188.23-21.8 188.88-22.83 189.53-23.85 190.73-24.65 191.93-25.45 193.71-25.93 195.48-26.4 197.73-26.4L197.73-26.4Q201.78-26.4 204.06-24.3 206.33-22.2 206.33-18.4L206.33-18.4 206.33-2.15 210.08-2.15 210.08-0.4Q209.53 0 208.61 0.3 207.68 0.6 206.53 0.6L206.53 0.6Q204.58 0.6 203.53-0.5 202.48-1.6 202.48-3.45L202.48-3.45 202.48-3.8 202.23-3.8Q201.88-2.95 201.31-2.15 200.73-1.35 199.83-0.75 198.93-0.15 197.66 0.23 196.38 0.6 194.68 0.6ZM196.43-2.15L196.43-2.15Q198.83-2.15 200.53-3.38 202.23-4.6 202.23-7.15L202.23-7.15 202.23-12 198.98-12Q196.83-12 195.38-11.68 193.93-11.35 193.08-10.73 192.23-10.1 191.86-9.2 191.48-8.3 191.48-7.1L191.48-7.1 191.48-6.05Q191.48-4.15 192.78-3.15 194.08-2.15 196.43-2.15ZM213.83 0L213.83-2.3 217.53-2.3 217.53-23.35 213.83-23.35 213.83-25.8 217.53-25.8 217.53-29.85Q217.53-31.65 218.13-33.15 218.73-34.65 219.81-35.73 220.88-36.8 222.36-37.4 223.83-38 225.58-38L225.58-38Q228.28-38 229.86-36.95 231.43-35.9 231.43-33.95L231.43-33.95Q231.43-32.65 230.71-31.88 229.98-31.1 228.83-31.1L228.83-31.1Q227.73-31.1 227.06-31.8 226.38-32.5 226.38-33.5L226.38-33.5Q226.38-35.25 227.73-35.8L227.73-35.8 227.73-35.9Q227.38-36 226.93-36.05 226.48-36.1 225.93-36.1L225.93-36.1Q223.83-36.1 222.73-34.6 221.63-33.1 221.63-30.4L221.63-30.4 221.63-25.8 227.23-25.8 227.23-23.35 221.63-23.35 221.63-2.3 226.33-2.3 226.33 0 213.83 0ZM230.93 0L230.93-2.3 234.63-2.3 234.63-23.35 230.93-23.35 230.93-25.8 234.63-25.8 234.63-29.85Q234.63-31.65 235.23-33.15 235.83-34.65 236.9-35.73 237.98-36.8 239.45-37.4 240.93-38 242.68-38L242.68-38Q245.38-38 246.95-36.95 248.53-35.9 248.53-33.95L248.53-33.95Q248.53-32.65 247.8-31.88 247.08-31.1 245.93-31.1L245.93-31.1Q244.83-31.1 244.15-31.8 243.48-32.5 243.48-33.5L243.48-33.5Q243.48-35.25 244.83-35.8L244.83-35.8 244.83-35.9Q244.48-36 244.03-36.05 243.58-36.1 243.03-36.1L243.03-36.1Q240.93-36.1 239.83-34.6 238.73-33.1 238.73-30.4L238.73-30.4 238.73-25.8 244.33-25.8 244.33-23.35 238.73-23.35 238.73-2.3 243.43-2.3 243.43 0 230.93 0Z" opacity="1" transform="matrix(1,0,0,1,0,0)" fill="#ffffff" class="wordmark-text-0" data-fill-palette-color="primary" id="text-0"></path></svg></g></svg></g><g transform="matrix(1,0,0,1,0,97.68419057519793)"><svg viewBox="0 0 232.20979200000002 20.14889464595608" height="20.14889464595608" width="232.20979200000002"><g transform="matrix(1,0,0,1,0,0)"><svg width="232.20979200000002" viewBox="4.5 -32.05 373.36 32.4" height="20.14889464595608" data-palette-color="#2a160c"><path d="M20.35-3.35L20.65-3 20.3 0 4.5 0 4.75-9.65 4.5-32.05 8.6-32.05 8.35-10 8.5-3.35 20.35-3.35ZM33.85-3L40.5-3.2 40.8-2.9 40.45 0 25.3 0 25.45-7.5 25.3-24.9 40.55-24.9 40.8-24.6 40.5-21.7 34.2-21.9 29-21.85 28.95-14.3 33.9-14.25 38.25-14.4 38.5-14.05 38.2-11.1 33.6-11.25 28.95-11.2 28.9-7.8 28.95-3.05 33.85-3ZM62.59-24.9L62.8-24.6 62.55-21.45 57.9-21.8 55.4-21.8 55.25-7.8 55.4 0 51.65 0 51.8-7.5 51.7-21.8 49.2-21.8 44.45-21.45 44.15-21.8 44.45-24.9 62.59-24.9ZM85.64-24.95Q89.59-24.95 91.72-23.05 93.84-21.15 93.84-17.55L93.84-17.55Q93.84-13.35 91.17-10.98 88.49-8.6 83.79-8.6L83.79-8.6 80.74-8.6 80.74-7.8 80.84 0 77.14 0 77.29-7.5 77.14-24.9 85.64-24.95ZM84.99-11.5Q89.94-12.35 89.94-17.25L89.94-17.25Q89.94-19.6 88.62-20.75 87.29-21.9 84.64-22L84.64-22 80.84-21.95 80.79-11.6 84.99-11.5ZM111.89-10.05Q114.94-5.4 118.64-0.9L118.64-0.9 118.59-0.4Q116.49 0.25 115.14 0.35L115.14 0.35 114.49-0.05Q110.69-5.8 108.74-9.1L108.74-9.1 104.04-9.05 104.04-7.8 104.14 0 100.44 0 100.59-7.5 100.44-24.9 108.94-24.95Q112.89-24.95 115.01-23.1 117.14-21.25 117.14-17.75L117.14-17.75Q117.14-15.2 115.76-13.2 114.39-11.2 111.89-10.05L111.89-10.05ZM104.14-21.9L104.09-12.15 108.79-12Q113.24-13.25 113.24-17.45L113.24-17.45Q113.24-19.65 111.94-20.75 110.64-21.85 107.99-21.95L107.99-21.95 104.14-21.9ZM134.54-25.2Q139.99-25.2 142.91-22 145.84-18.8 145.84-12.95L145.84-12.95Q145.84-6.6 142.71-3.13 139.59 0.35 133.79 0.35L133.79 0.35Q128.39 0.35 125.44-2.93 122.49-6.2 122.49-12.25L122.49-12.25Q122.49-18.45 125.64-21.83 128.79-25.2 134.54-25.2L134.54-25.2ZM134.19-22.05Q130.24-22.05 128.31-19.8 126.39-17.55 126.39-12.7L126.39-12.7Q126.39-7.5 128.29-5.15 130.19-2.8 134.09-2.8L134.09-2.8Q138.09-2.8 140.04-5.1 141.99-7.4 141.99-12.3L141.99-12.3Q141.99-17.35 140.06-19.7 138.14-22.05 134.19-22.05L134.19-22.05ZM159.93-25.15Q162.98-25.15 166.03-23.95L166.03-23.95 165.38-20.25 164.78-20.1Q163.38-21.2 162.13-21.73 160.88-22.25 159.53-22.25L159.53-22.25Q157.38-22.25 156.13-21.13 154.88-20 154.88-18.55L154.88-18.55Q154.88-17.1 156.11-16.2 157.33-15.3 159.88-14.2L159.88-14.2Q162.13-13.2 163.46-12.4 164.78-11.6 165.76-10.28 166.73-8.95 166.73-7.05L166.73-7.05Q166.73-5.1 165.68-3.43 164.63-1.75 162.61-0.73 160.58 0.3 157.78 0.3L157.78 0.3Q156.03 0.3 154.11-0.13 152.18-0.55 150.53-1.4L150.53-1.4 150.98-5.35 151.48-5.55Q152.88-4.15 154.76-3.38 156.63-2.6 158.23-2.6L158.23-2.6Q160.33-2.6 161.68-3.73 163.03-4.85 163.03-6.45L163.03-6.45Q163.03-7.95 161.81-8.85 160.58-9.75 157.98-10.95L157.98-10.95Q155.83-11.9 154.46-12.7 153.08-13.5 152.13-14.83 151.18-16.15 151.18-18.05L151.18-18.05Q151.18-20.05 152.26-21.65 153.33-23.25 155.31-24.2 157.28-25.15 159.93-25.15L159.93-25.15ZM202.93-24.9L202.78-7.8 202.88 0 199.18 0 199.33-7.5 199.28-10.9 185.73-10.85 185.68-7.8 185.78 0 182.08 0 182.23-7.5 182.08-24.9 185.83-24.9 185.73-14.2 192.48-14.15 199.28-14.2 199.18-24.9 202.93-24.9ZM222.53-24.9L231.28 0 227.53 0 226.93-2.7 225.63-6.4 219.68-6.45 214.38-6.4 213.03-2.9 212.33 0 208.63 0 218.23-24.9 222.53-24.9ZM219.98-9.4L224.58-9.45 220.43-21.25 220.13-21.25 215.58-9.45 219.98-9.4ZM258.27-25L258.12-7.45 258.17 0 254.17 0 241.07-19 240.82-19 240.77-8.3 240.87 0 237.47 0 237.62-7.35 237.52-24.9 241.47-24.9 254.57-5.9 254.92-5.9 254.82-24.75 258.27-25ZM277.02-25.1Q282.72-25.1 285.75-22.05 288.77-19 288.77-13.3L288.77-13.3Q288.77-6.75 285.47-3.25 282.17 0.25 276.02 0.25L276.02 0.25Q274.27 0.25 271.85 0.18 269.42 0.1 267.27 0L267.27 0 267.42-7.5 267.27-24.9 277.02-25.1ZM276.62-2.8Q280.62-2.8 282.8-5.23 284.97-7.65 284.97-12.55L284.97-12.55Q284.97-17.35 282.92-19.65 280.87-21.95 276.72-21.95L276.72-21.95Q274.27-21.95 270.97-21.75L270.97-21.75 270.87-7.8 270.92-3.1Q272.37-3 273.97-2.9 275.57-2.8 276.62-2.8L276.62-2.8ZM308.77-3.15L308.97-2.8 308.72 0 295.47 0 295.62-7.5 295.47-24.9 299.22-24.9 299.07-7.8 299.17-3.15 308.77-3.15ZM322.97-3L329.62-3.2 329.92-2.9 329.57 0 314.42 0 314.57-7.5 314.42-24.9 329.67-24.9 329.92-24.6 329.62-21.7 323.32-21.9 318.12-21.85 318.07-14.3 323.02-14.25 327.37-14.4 327.62-14.05 327.32-11.1 322.72-11.25 318.07-11.2 318.02-7.8 318.07-3.05 322.97-3ZM348.16-24.9L348.01-7.8 348.11 0 344.41 0 344.56-7.5 344.41-24.9 348.16-24.9ZM372.21-24.9L372.41-24.6 372.16-21.45 367.51-21.8 365.01-21.8 364.86-7.8 365.01 0 361.26 0 361.41-7.5 361.31-21.8 358.81-21.8 354.06-21.45 353.76-21.8 354.06-24.9 372.21-24.9ZM375.66-4.4Q376.66-4.4 377.26-3.8 377.86-3.2 377.86-2.15L377.86-2.15Q377.86-1.05 377.23-0.4 376.61 0.25 375.51 0.25L375.51 0.25Q374.46 0.25 373.88-0.35 373.31-0.95 373.31-2.05L373.31-2.05Q373.31-3.1 373.93-3.75 374.56-4.4 375.66-4.4L375.66-4.4Z" opacity="1" transform="matrix(1,0,0,1,0,0)" fill="#ffffff" class="slogan-text-1" data-fill-palette-color="secondary" id="text-1"></path></svg></g></svg></g></svg></g></svg></g><g><svg viewBox="0 0 245.65351679999995 245.65351679999995" height="245.65351679999995" width="245.65351679999995"><g><svg xmlns="http://www.w3.org/2000/svg" xmlns:xlink="http://www.w3.org/1999/xlink" version="1.1" x="0" y="0" viewBox="1 1 48.025 48.025" enable-background="new 0 0 50 50" xml:space="preserve" height="245.65351679999995" width="245.65351679999995" class="icon-icon-0" data-fill-palette-color="accent" id="icon-0"><g fill="#ae2a9d" data-fill-palette-color="accent"><path d="M40.9 21c0-11-9-20-20-20C10 1 1 10 1 21c0 11 9 20 20 20C32 40.9 40.9 32 40.9 21zM21 37.9c-9.4 0-17-7.6-17-17 0-9.3 7.6-17 17-17 9.4 0 17 7.6 17 17C37.9 30.3 30.3 37.9 21 37.9z" fill="#ffffff" data-fill-palette-color="accent"></path><path d="M47.6 38.1L40.5 31c-2.1 4.1-5.4 7.4-9.5 9.5l7.1 7.1c1.9 1.9 5 1.9 6.8 0l2.7-2.7C49.5 43 49.5 39.9 47.6 38.1z" fill="#ffffff" data-fill-palette-color="accent"></path><path d="M30.9 25.2c-6.5-3.2-13.2-3.2-19.8 0-1.2 0.5-2 1.7-2 3v3c0 1.1 0.9 2 2 2h19.7c1.1 0 2-0.9 2-2v-3C32.8 26.9 32.1 25.7 30.9 25.2z" fill="#ffffff" data-fill-palette-color="accent"></path><path d="M21 21.4c3 0 5.5-3.1 5.5-6.9 0-3.5-2.2-5.8-5.5-5.8-3.3 0-5.5 2.3-5.5 5.8C15.5 18.3 17.9 21.4 21 21.4z" fill="#ffffff" data-fill-palette-color="accent"></path></g></svg></g></svg></g></svg></g><defs></defs></svg><rect width="395.52" height="147.023172479288" fill="none" stroke="none" visibility="hidden"></rect></g></svg></g></svg>