<svg xmlns="http://www.w3.org/2000/svg" version="1.1" xmlns:xlink="http://www.w3.org/1999/xlink" xmlns:svgjs="http://svgjs.dev/svgjs" width="2000" height="535" viewBox="0 0 2000 535"><g transform="matrix(1,0,0,1,-1.2121212121212466,0.6694053987729944)"><svg viewBox="0 0 396 106" data-background-color="#ffffff" preserveAspectRatio="xMidYMid meet" height="535" width="2000" xmlns="http://www.w3.org/2000/svg" xmlns:xlink="http://www.w3.org/1999/xlink"><g id="tight-bounds" transform="matrix(1,0,0,1,0.2400000000000091,-0.1326298547101601)"><svg viewBox="0 0 395.52 106.26525970942032" height="106.26525970942032" width="395.52"><g><svg viewBox="0 0 559.354780894278 150.2831236383403" height="106.26525970942032" width="395.52"><g transform="matrix(1,0,0,1,163.83478089427797,46.43966654828774)"><svg viewBox="0 0 395.52 57.40379054176482" height="57.40379054176482" width="395.52"><g id="textblocktransform"><svg viewBox="0 0 395.52 57.40379054176482" height="57.40379054176482" width="395.52" id="textblock"><g><svg viewBox="0 0 395.52 57.40379054176482" height="57.40379054176482" width="395.52"><g transform="matrix(1,0,0,1,0,0)"><svg width="395.52" viewBox="3.2 -39.55 275.93 40.050000000000004" height="57.40379054176482" data-palette-color="#501e98"><path d="M36.7-0.8L36.7-0.8 26.25-11.25Q25.45-12.05 25.45-13.03 25.45-14 26.25-14.8L26.25-14.8Q27.05-15.6 28.03-15.6 29-15.6 29.8-14.8L29.8-14.8 40.25-4.3Q41-3.5 41.03-2.55 41.05-1.6 40.25-0.8L40.25-0.8Q39.45 0 38.48 0 37.5 0 36.7-0.8ZM23.05 0.5L23.05 0.5Q18.65 0.5 15-0.98 11.35-2.45 8.72-5.13 6.1-7.8 4.65-11.48 3.2-15.15 3.2-19.55L3.2-19.55Q3.2-23.95 4.65-27.6 6.1-31.25 8.72-33.93 11.35-36.6 15-38.08 18.65-39.55 23.05-39.55L23.05-39.55Q27.45-39.55 31.08-38.08 34.7-36.6 37.35-33.93 40-31.25 41.45-27.6 42.9-23.95 42.9-19.55L42.9-19.55Q42.9-15.15 41.45-11.48 40-7.8 37.35-5.13 34.7-2.45 31.08-0.98 27.45 0.5 23.05 0.5ZM23.05-4.2L23.05-4.2Q26.3-4.2 29.03-5.38 31.75-6.55 33.75-8.63 35.75-10.7 36.83-13.5 37.9-16.3 37.9-19.55L37.9-19.55Q37.9-22.8 36.83-25.6 35.75-28.4 33.75-30.48 31.75-32.55 29.03-33.7 26.3-34.85 23.05-34.85L23.05-34.85Q19.8-34.85 17.07-33.7 14.35-32.55 12.38-30.48 10.4-28.4 9.3-25.6 8.2-22.8 8.2-19.55L8.2-19.55Q8.2-16.3 9.3-13.5 10.4-10.7 12.38-8.63 14.35-6.55 17.07-5.38 19.8-4.2 23.05-4.2ZM62.05 0.25L62.05 0.25Q58.6 0.25 55.87-1.23 53.15-2.7 51.57-5.55 50-8.4 50-12.55L50-12.55 50-24.85Q50-25.95 50.72-26.68 51.45-27.4 52.55-27.4L52.55-27.4Q53.65-27.4 54.37-26.68 55.1-25.95 55.1-24.85L55.1-24.85 55.1-12.55Q55.1-9.75 56.15-7.93 57.2-6.1 59-5.23 60.8-4.35 63.05-4.35L63.05-4.35Q65.2-4.35 66.87-5.2 68.55-6.05 69.55-7.5 70.55-8.95 70.55-10.75L70.55-10.75 73.7-10.75Q73.7-7.65 72.17-5.15 70.65-2.65 68.02-1.2 65.4 0.25 62.05 0.25ZM73.1 0L73.1 0Q72 0 71.27-0.73 70.55-1.45 70.55-2.55L70.55-2.55 70.55-24.85Q70.55-26 71.27-26.7 72-27.4 73.1-27.4L73.1-27.4Q74.25-27.4 74.95-26.7 75.65-26 75.65-24.85L75.65-24.85 75.65-2.55Q75.65-1.45 74.95-0.73 74.25 0 73.1 0ZM87.7 0L87.7 0Q86.6 0 85.87-0.73 85.15-1.45 85.15-2.55L85.15-2.55 85.15-24.8Q85.15-25.95 85.87-26.65 86.6-27.35 87.7-27.35L87.7-27.35Q88.85-27.35 89.55-26.65 90.25-25.95 90.25-24.8L90.25-24.8 90.25-2.55Q90.25-1.45 89.55-0.73 88.85 0 87.7 0ZM87.7-31.8L87.7-31.8Q86.35-31.8 85.37-32.77 84.4-33.75 84.4-35.1L84.4-35.1Q84.4-36.45 85.37-37.43 86.35-38.4 87.7-38.4L87.7-38.4Q89.05-38.4 90.02-37.43 91-36.45 91-35.1L91-35.1Q91-33.75 90.02-32.77 89.05-31.8 87.7-31.8ZM112.14 0.2L112.14 0.2Q108.14 0.2 105.02-1.63 101.89-3.45 100.12-6.58 98.34-9.7 98.34-13.65L98.34-13.65Q98.34-17.7 100.09-20.85 101.84-24 104.89-25.78 107.94-27.55 111.89-27.55L111.89-27.55Q114.84-27.55 117.29-26.43 119.74-25.3 121.69-23.05L121.69-23.05Q122.39-22.25 122.19-21.4 121.99-20.55 121.09-19.9L121.09-19.9Q120.39-19.4 119.54-19.58 118.69-19.75 117.99-20.45L117.99-20.45Q115.54-23.05 111.89-23.05L111.89-23.05Q109.34-23.05 107.39-21.88 105.44-20.7 104.34-18.6 103.24-16.5 103.24-13.65L103.24-13.65Q103.24-10.95 104.37-8.85 105.49-6.75 107.49-5.53 109.49-4.3 112.14-4.3L112.14-4.3Q113.89-4.3 115.22-4.73 116.54-5.15 117.64-6.05L117.64-6.05Q118.44-6.7 119.29-6.78 120.14-6.85 120.79-6.3L120.79-6.3Q121.64-5.6 121.74-4.73 121.84-3.85 121.14-3.15L121.14-3.15Q117.54 0.2 112.14 0.2ZM149.94-23.7L134.59-10 131.49-13.4 146.84-27.1Q147.59-27.8 148.52-27.75 149.44-27.7 150.09-26.95L150.09-26.95Q150.79-26.2 150.74-25.3 150.69-24.4 149.94-23.7L149.94-23.7ZM132.24 0L132.24 0Q131.14 0 130.47-0.68 129.79-1.35 129.79-2.45L129.79-2.45 129.79-36.6Q129.79-37.7 130.47-38.38 131.14-39.05 132.24-39.05L132.24-39.05Q133.34-39.05 134.02-38.38 134.69-37.7 134.69-36.6L134.69-36.6 134.69-2.45Q134.69-1.35 134.02-0.68 133.34 0 132.24 0ZM150.09-0.25L150.09-0.25Q149.29 0.4 148.31 0.33 147.34 0.25 146.69-0.55L146.69-0.55 136.54-13.1 140.04-16.4 150.44-3.6Q151.09-2.8 151.02-1.88 150.94-0.95 150.09-0.25ZM171.14 0.5L171.14 0.5Q167.94 0.5 165.04-0.5 162.14-1.5 159.99-3.3 157.84-5.1 156.84-7.45L156.84-7.45Q156.34-8.5 156.86-9.4 157.39-10.3 158.64-10.55L158.64-10.55Q159.54-10.75 160.41-10.28 161.29-9.8 161.74-8.85L161.74-8.85Q162.34-7.6 163.71-6.55 165.09-5.5 167.04-4.85 168.99-4.2 171.14-4.2L171.14-4.2Q173.54-4.2 175.56-4.95 177.59-5.7 178.84-7.13 180.09-8.55 180.09-10.65L180.09-10.65Q180.09-13.3 178.01-15.4 175.94-17.5 171.19-18L171.19-18Q164.99-18.6 161.44-21.65 157.89-24.7 157.89-29.2L157.89-29.2Q157.89-32.5 159.74-34.8 161.59-37.1 164.76-38.3 167.94-39.5 171.84-39.5L171.84-39.5Q174.89-39.5 177.16-38.65 179.44-37.8 181.14-36.3 182.84-34.8 184.09-32.75L184.09-32.75Q184.79-31.65 184.66-30.68 184.54-29.7 183.69-29.15L183.69-29.15Q182.74-28.55 181.64-28.9 180.54-29.25 179.99-30.2L179.99-30.2Q179.19-31.65 178.04-32.65 176.89-33.65 175.34-34.23 173.79-34.8 171.69-34.8L171.69-34.8Q167.99-34.85 165.49-33.43 162.99-32 162.99-29.05L162.99-29.05Q162.99-27.55 163.76-26.18 164.54-24.8 166.61-23.8 168.69-22.8 172.59-22.4L172.59-22.4Q178.54-21.8 181.86-18.78 185.19-15.75 185.19-10.8L185.19-10.8Q185.19-7.95 184.01-5.85 182.84-3.75 180.86-2.33 178.89-0.9 176.36-0.2 173.84 0.5 171.14 0.5ZM203.49 0L202.59 0Q200.09 0 198.09-1.28 196.09-2.55 194.94-4.75 193.79-6.95 193.79-9.7L193.79-9.7 193.79-33.55Q193.79-34.65 194.49-35.35 195.19-36.05 196.29-36.05L196.29-36.05Q197.39-36.05 198.09-35.35 198.79-34.65 198.79-33.55L198.79-33.55 198.79-9.7Q198.79-7.7 199.89-6.35 200.99-5 202.59-5L202.59-5 204.29-5Q205.19-5 205.81-4.3 206.44-3.6 206.44-2.5L206.44-2.5Q206.44-1.4 205.61-0.7 204.79 0 203.49 0L203.49 0ZM203.04-22.05L191.49-22.05Q190.44-22.05 189.79-22.65 189.14-23.25 189.14-24.15L189.14-24.15Q189.14-25.15 189.79-25.75 190.44-26.35 191.49-26.35L191.49-26.35 203.04-26.35Q204.09-26.35 204.74-25.75 205.39-25.15 205.39-24.15L205.39-24.15Q205.39-23.25 204.74-22.65 204.09-22.05 203.04-22.05L203.04-22.05ZM224.08 0.2L224.08 0.2Q220.43 0.2 217.53-1.63 214.63-3.45 212.96-6.58 211.28-9.7 211.28-13.65L211.28-13.65Q211.28-17.6 213.11-20.75 214.93-23.9 218.06-25.73 221.18-27.55 225.08-27.55L225.08-27.55Q228.98-27.55 232.08-25.73 235.18-23.9 237.01-20.75 238.83-17.6 238.83-13.65L238.83-13.65 236.88-13.65Q236.88-9.7 235.21-6.58 233.53-3.45 230.63-1.63 227.73 0.2 224.08 0.2ZM225.08-4.3L225.08-4.3Q227.63-4.3 229.63-5.53 231.63-6.75 232.78-8.88 233.93-11 233.93-13.65L233.93-13.65Q233.93-16.35 232.78-18.48 231.63-20.6 229.63-21.83 227.63-23.05 225.08-23.05L225.08-23.05Q222.58-23.05 220.56-21.83 218.53-20.6 217.36-18.48 216.18-16.35 216.18-13.65L216.18-13.65Q216.18-11 217.36-8.88 218.53-6.75 220.56-5.53 222.58-4.3 225.08-4.3ZM236.28 0.05L236.28 0.05Q235.18 0.05 234.46-0.68 233.73-1.4 233.73-2.5L233.73-2.5 233.73-10.15 234.68-15.45 238.83-13.65 238.83-2.5Q238.83-1.4 238.11-0.68 237.38 0.05 236.28 0.05ZM249.38 0L249.38 0Q248.43 0 247.68-0.7 246.93-1.4 246.93-2.55L246.93-2.55 246.93-27.2Q246.93-30.8 248.36-33.45 249.78-36.1 252.33-37.58 254.88-39.05 258.23-39.05L258.23-39.05Q259.33-39.05 260.06-38.4 260.78-37.75 260.78-36.75L260.78-36.75Q260.78-35.8 260.06-35.13 259.33-34.45 258.23-34.45L258.23-34.45Q256.38-34.45 254.98-33.6 253.58-32.75 252.81-31.25 252.03-29.75 252.03-27.7L252.03-27.7 252.03-2.55Q252.03-1.4 251.33-0.7 250.63 0 249.38 0ZM257.13-22.05L244.78-22.05Q243.73-22.05 243.08-22.65 242.43-23.25 242.43-24.15L242.43-24.15Q242.43-25.15 243.08-25.75 243.73-26.35 244.78-26.35L244.78-26.35 257.13-26.35Q258.18-26.35 258.83-25.75 259.48-25.15 259.48-24.15L259.48-24.15Q259.48-23.25 258.83-22.65 258.18-22.05 257.13-22.05L257.13-22.05ZM267.73 0L267.73 0Q266.78 0 266.03-0.7 265.28-1.4 265.28-2.55L265.28-2.55 265.28-27.2Q265.28-30.8 266.7-33.45 268.13-36.1 270.68-37.58 273.23-39.05 276.58-39.05L276.58-39.05Q277.68-39.05 278.4-38.4 279.13-37.75 279.13-36.75L279.13-36.75Q279.13-35.8 278.4-35.13 277.68-34.45 276.58-34.45L276.58-34.45Q274.73-34.45 273.33-33.6 271.93-32.75 271.15-31.25 270.38-29.75 270.38-27.7L270.38-27.7 270.38-2.55Q270.38-1.4 269.68-0.7 268.98 0 267.73 0ZM275.48-22.05L263.13-22.05Q262.08-22.05 261.43-22.65 260.78-23.25 260.78-24.15L260.78-24.15Q260.78-25.15 261.43-25.75 262.08-26.35 263.13-26.35L263.13-26.35 275.48-26.35Q276.53-26.35 277.18-25.75 277.83-25.15 277.83-24.15L277.83-24.15Q277.83-23.25 277.18-22.65 276.53-22.05 275.48-22.05L275.48-22.05Z" opacity="1" transform="matrix(1,0,0,1,0,0)" fill="#501e98" class="wordmark-text-0" data-fill-palette-color="primary" id="text-0"></path></svg></g></svg></g></svg></g></svg></g><g><svg viewBox="0 0 150.2831236383403 150.2831236383403" height="150.2831236383403" width="150.2831236383403"><g><svg xmlns="http://www.w3.org/2000/svg" xmlns:xlink="http://www.w3.org/1999/xlink" version="1.1" x="0" y="0" viewBox="1 1 48.025 48.025" enable-background="new 0 0 50 50" xml:space="preserve" height="150.2831236383403" width="150.2831236383403" class="icon-icon-0" data-fill-palette-color="accent" id="icon-0"><g fill="#9c2270" data-fill-palette-color="accent"><path d="M40.9 21c0-11-9-20-20-20C10 1 1 10 1 21c0 11 9 20 20 20C32 40.9 40.9 32 40.9 21zM21 37.9c-9.4 0-17-7.6-17-17 0-9.3 7.6-17 17-17 9.4 0 17 7.6 17 17C37.9 30.3 30.3 37.9 21 37.9z" fill="#9c2270" data-fill-palette-color="accent"></path><path d="M47.6 38.1L40.5 31c-2.1 4.1-5.4 7.4-9.5 9.5l7.1 7.1c1.9 1.9 5 1.9 6.8 0l2.7-2.7C49.5 43 49.5 39.9 47.6 38.1z" fill="#9c2270" data-fill-palette-color="accent"></path><path d="M30.9 25.2c-6.5-3.2-13.2-3.2-19.8 0-1.2 0.5-2 1.7-2 3v3c0 1.1 0.9 2 2 2h19.7c1.1 0 2-0.9 2-2v-3C32.8 26.9 32.1 25.7 30.9 25.2z" fill="#9c2270" data-fill-palette-color="accent"></path><path d="M21 21.4c3 0 5.5-3.1 5.5-6.9 0-3.5-2.2-5.8-5.5-5.8-3.3 0-5.5 2.3-5.5 5.8C15.5 18.3 17.9 21.4 21 21.4z" fill="#9c2270" data-fill-palette-color="accent"></path></g></svg></g></svg></g></svg></g><defs></defs></svg><rect width="395.52" height="106.26525970942032" fill="none" stroke="none" visibility="hidden"></rect></g></svg></g></svg>