<svg xmlns="http://www.w3.org/2000/svg" version="1.1" xmlns:xlink="http://www.w3.org/1999/xlink" xmlns:svgjs="http://svgjs.dev/svgjs" width="2000" height="1999" viewBox="0 0 2000 1999"><g transform="matrix(1,0,0,1,-0.431486880466764,-0.4312711370263287)"><svg viewBox="0 0 343 343" data-background-color="#d1abff" preserveAspectRatio="xMidYMid meet" height="1999" width="2000" xmlns="http://www.w3.org/2000/svg" xmlns:xlink="http://www.w3.org/1999/xlink"><g id="tight-bounds" transform="matrix(1,0,0,1,0.0740000000000407,0.07400000000001228)"><svg viewBox="0 0 342.85155851775386 342.85155851775386" height="342.85155851775386" width="342.85155851775386"><g><svg></svg></g><g><svg viewBox="0 0 342.85155851775386 342.85155851775386" height="342.85155851775386" width="342.85155851775386"><g><path d="M0 171.426c0-94.676 76.75-171.426 171.426-171.426 94.676 0 171.426 76.75 171.426 171.426 0 94.676-76.75 171.426-171.426 171.426-94.676 0-171.426-76.75-171.426-171.426zM171.426 339.615c92.889 0 168.19-75.301 168.189-168.189 0-92.889-75.301-168.19-168.189-168.19-92.889 0-168.19 75.301-168.19 168.19 0 92.889 75.301 168.19 168.19 168.189z" data-fill-palette-color="tertiary" fill="#ffffff" stroke="transparent"></path><ellipse rx="164.56874808852186" ry="164.56874808852186" cx="171.42577925887693" cy="171.42577925887693" fill="#ffffff" stroke="transparent" stroke-width="0" fill-opacity="1" data-fill-palette-color="tertiary"></ellipse></g><g transform="matrix(1,0,0,1,64.84655864529837,87.94696979938098)"><svg viewBox="0 0 213.1584412271571 166.9576189189919" height="166.9576189189919" width="213.1584412271571"><g><svg viewBox="0 0 213.1584412271571 166.9576189189919" height="166.9576189189919" width="213.1584412271571"><g><svg viewBox="0 0 213.1584412271571 166.9576189189919" height="166.9576189189919" width="213.1584412271571"><g transform="matrix(1,0,0,1,0,100.42282898936601)"><svg viewBox="0 0 213.1584412271571 66.5347899296259" height="66.5347899296259" width="213.1584412271571"><g id="textblocktransform"><svg viewBox="0 0 213.1584412271571 66.5347899296259" height="66.5347899296259" width="213.1584412271571" id="textblock"><g><svg viewBox="0 0 213.1584412271571 35.88568641718349" height="35.88568641718349" width="213.1584412271571"><g transform="matrix(1,0,0,1,0,0)"><svg width="213.1584412271571" viewBox="0.95 -38.75 252.13000000000002 42.45" height="35.88568641718349" data-palette-color="#d1abff"><path d="M12.8 1.05Q6.85 1.05 3.9-2.65 0.95-6.35 0.95-12.9L0.95-12.9Q0.95-18.35 3.3-22.9 5.65-27.45 9.85-30.13 14.05-32.8 19.3-32.8L19.3-32.8Q24.4-32.8 27.48-29.33 30.55-25.85 30.55-18.95L30.55-18.95Q30.55-15.25 29.25-11.65 27.95-8.05 25.55-5.2L25.55-5.2Q29.8-1.2 29.8-0.7L29.8-0.7Q29.8 0.6 29.03 1.38 28.25 2.15 26.85 2.15L26.85 2.15Q25.8 2.15 21.55-1.6L21.55-1.6Q17.55 1.05 12.8 1.05L12.8 1.05ZM13.5-3.45Q15.65-3.45 17.85-5.25L17.85-5.25Q16.3-7.05 14.83-9.2 13.35-11.35 13.35-11.95L13.35-11.95Q13.35-13.3 13.88-13.83 14.4-14.35 15.6-14.35L15.6-14.35Q15.75-14.35 17.65-12.55L17.65-12.55Q18.4-11.8 21.1-9.3L21.1-9.3Q22.4-11.6 23.13-14.38 23.85-17.15 23.85-20.15L23.85-20.15Q23.85-23.65 22.58-25.7 21.3-27.75 18.5-27.75L18.5-27.75Q15.3-27.75 12.8-25.35 10.3-22.95 8.9-19.23 7.5-15.5 7.5-11.7L7.5-11.7Q7.5-9.4 8.38-7.53 9.25-5.65 10.65-4.55 12.05-3.45 13.5-3.45L13.5-3.45ZM53.35-0.15Q53.15 0.7 52.45 1.03 51.75 1.35 50.6 1.35L50.6 1.35Q47.15 1.35 47.15-0.2L47.15-0.2 47.45-2.1Q46.05-1.05 44.15 0 42.25 1.05 41 1.05L41 1.05Q33.6 1.05 33.6-3.8L33.6-3.8Q33.6-12.05 38.55-21.7L38.55-21.7Q39.15-22.85 39.82-23.35 40.5-23.85 42.15-23.85L42.15-23.85Q43.9-23.85 44.77-23.38 45.65-22.9 45.65-22.25L45.65-22.25Q45.65-22.1 45.1-21.35L45.1-21.35Q44.55-20.7 44.15-20.05L44.15-20.05Q39.45-12.2 39.45-4.75L39.45-4.75Q39.45-4.1 39.95-3.6 40.45-3.1 40.85-3.1L40.85-3.1Q41.95-3.1 44.57-4.15 47.2-5.2 48.6-6.3L48.6-6.3 49.6-10.35Q51.4-17.6 51.85-19.25L51.85-19.25Q52.4-21.25 53.27-22.53 54.15-23.8 56.05-23.8L56.05-23.8Q58.7-23.8 58.7-22.2L58.7-22.2Q58.7-21.95 58.57-21.58 58.45-21.2 58.4-20.95L58.4-20.95 56.4-12.85Q54-3.2 53.35-0.15L53.35-0.15ZM65.95-29.7Q65.95-31.25 66.92-32.45 67.9-33.65 69.65-33.65L69.65-33.65Q71.5-33.65 72.87-32.5 74.25-31.35 74.25-29.9L74.25-29.9Q74.25-28.45 72.85-27.4 71.45-26.35 69.6-26.35L69.6-26.35Q67.8-26.35 66.87-27.28 65.95-28.2 65.95-29.7L65.95-29.7ZM71.2-20.85Q68.55-10.05 67.15-4.6L67.15-4.6Q66.95-3.8 66.95-2.85L66.95-2.85 67-1.45Q67-0.6 66.47-0.25 65.95 0.1 64.25 0.15L64.25 0.15Q62.6 0.15 61.75-0.2 60.9-0.55 60.9-1.7L60.9-1.7Q60.9-2.25 62.17-7.55 63.45-12.85 65.65-21.35L65.65-21.35 64.5-22.85Q64.35-23 64.35-23.2L64.35-23.2Q64.35-23.7 65.45-24.03 66.55-24.35 68.5-24.35L68.5-24.35Q70.2-24.35 70.67-23.38 71.15-22.4 71.2-20.85L71.2-20.85ZM95.79-5.9Q95.19-4.3 93.44-2.68 91.69-1.05 88.99 0 86.29 1.05 83.09 1.05L83.09 1.05Q78.19 1.05 75.84-0.98 73.49-3 73.49-6.25L73.49-6.25Q73.49-10.95 75.89-14.98 78.29-19 82.34-21.35 86.39-23.7 90.99-23.7L90.99-23.7Q93.84-23.7 95.72-22.03 97.59-20.35 97.59-17.5L97.59-17.5Q97.59-16.4 96.69-15.68 95.79-14.95 94.29-14.95L94.29-14.95Q93.09-14.95 92.67-15.5 92.24-16.05 92.24-16.95L92.24-16.95 92.29-18.1Q92.29-18.7 91.64-19.07 90.99-19.45 90.24-19.45L90.24-19.45Q88.69-19.45 86.07-17.6 83.44-15.75 81.47-12.73 79.49-9.7 79.49-6.25L79.49-6.25Q79.49-4.85 80.59-4.1 81.69-3.35 83.84-3.35L83.84-3.35Q85.19-3.35 86.94-3.9 88.69-4.45 89.14-5.3L89.14-5.3Q90.84-8.4 92.24-8.4L92.24-8.4Q94.29-8.4 95.02-7.63 95.74-6.85 95.79-5.9L95.79-5.9ZM123.84-22.4Q124.04-22.1 124.37-21.28 124.69-20.45 124.69-20L124.69-20Q124.69-19.75 124.64-19.7L124.64-19.7Q124.39-19.4 123.49-19.2 122.59-19 122.29-18.95L122.29-18.95Q120.74-17.95 117.37-15.78 113.99-13.6 112.44-12.6L112.44-12.6Q112.54-11.4 114.24-8.93 115.94-6.45 117.89-4.25 119.84-2.05 120.24-2.05L120.24-2.05Q120.69-2.05 121.37-1.3 122.04-0.55 122.04 0.05L122.04 0.05Q122.04 0.6 121.34 0.75L121.34 0.75Q120.89 0.85 119.67 1.1 118.44 1.35 117.54 1.35L117.54 1.35Q116.74 1.35 116.29 1.15L116.29 1.15Q115.14 0.75 113.17-1.53 111.19-3.8 109.39-6.63 107.59-9.45 107.04-11.5L107.04-11.5Q105.44-5.05 104.79-2.68 104.14-0.3 103.74 0.43 103.34 1.15 102.79 1.15L102.79 1.15 101.39 1.2Q98.09 1.2 97.94-1.45L97.94-1.45Q98.94-3.9 99.34-5.5L99.34-5.5Q104.29-23.85 106.39-33.15L106.39-33.15Q106.34-33.9 106.29-35.23 106.24-36.55 106.24-37.3L106.24-37.3Q106.39-37.95 107.37-38.35 108.34-38.75 109.14-38.75L109.14-38.75Q110.39-38.75 111.79-37.9 113.19-37.05 113.24-35.85L113.24-35.85 108.79-18.4 107.94-14.95Q108.99-16.25 111.52-18.15 114.04-20.05 116.72-21.55 119.39-23.05 120.99-23.35L120.99-23.35Q121.39-23.35 122.47-23.1 123.54-22.85 123.84-22.4L123.84-22.4ZM148.84-26.35Q148.59-27.15 146.91-27.78 145.24-28.4 142.54-28.4L142.54-28.4Q139.59-28.4 137.94-26.75 136.29-25.1 136.29-22.6L136.29-22.6Q136.29-21.05 137.41-20.23 138.54-19.4 140.89-18.4L140.89-18.4 142.69-17.65 144.19-16.95Q146.89-15.75 148.46-14.78 150.04-13.8 151.14-12.1 152.24-10.4 152.24-7.75L152.24-7.75Q152.24-4.9 150.36-2.83 148.49-0.75 145.14 0.33 141.79 1.4 137.34 1.4L137.34 1.4Q134.04 1.4 131.16 0.38 128.29-0.65 126.61-2.2 124.94-3.75 124.94-5.25L124.94-5.25Q124.94-6.7 126.19-7.63 127.44-8.55 129.74-8.9L129.74-8.9Q129.99-7.45 131.44-6.3 132.89-5.15 134.81-4.48 136.74-3.8 138.19-3.8L138.19-3.8Q140.84-3.8 142.91-4.85 144.99-5.9 144.99-7.75L144.99-7.75Q144.99-9.3 143.51-10.33 142.04-11.35 139.09-12.55L139.09-12.55 136.44-13.75Q133.19-15.35 131.29-17.35 129.39-19.35 129.39-22.65L129.39-22.65Q129.39-26.3 131.44-28.58 133.49-30.85 136.41-31.85 139.34-32.85 142.14-32.85L142.14-32.85Q146.59-32.85 149.46-31.7 152.34-30.55 153.64-28.8 154.94-27.05 154.94-25.2L154.94-25.2Q154.94-24.15 154.41-22.65 153.89-21.15 152.86-20.05 151.84-18.95 150.39-18.95L150.39-18.95Q147.89-18.95 147.89-21.55L147.89-21.55Q147.99-22.35 148.34-24.18 148.69-26 148.84-26.35L148.84-26.35ZM167.39-18.1L164.24-5.5Q164.24-4.35 164.84-3.68 165.44-3 166.54-3L166.54-3Q168.04-3 169.01-3.88 169.99-4.75 171.09-6.35L171.09-6.35Q171.89-7.5 172.39-8 172.89-8.5 173.54-8.5L173.54-8.5Q174.84-8.5 175.39-8.18 175.94-7.85 175.94-6.85L175.94-6.85Q175.94-6.4 175.84-5.78 175.74-5.15 175.59-4.85L175.59-4.85Q174.39-2.3 171.66-0.45 168.94 1.4 165.49 1.4L165.49 1.4Q162.04 1.4 160.29-0.28 158.54-1.95 158.54-5.05L158.54-5.05Q158.54-5.5 158.99-7.4 159.44-9.3 160.14-11.95L160.14-11.95 161.54-17.65 158.49-17.4Q157.89-17.4 157.59-17.85 157.29-18.3 157.29-18.95L157.29-18.95Q157.29-20.2 158.19-21.45L158.19-21.45Q158.29-21.6 159.19-21.75 160.09-21.9 161.39-22.05L161.39-22.05 162.74-22.2 164.44-29.5Q164.94-30.8 165.96-31.53 166.99-32.25 167.89-32.25L167.89-32.25Q168.89-32.25 169.59-31.65 170.29-31.05 170.34-30.25L170.34-30.25 168.54-22.75Q170.49-23 172.16-23.18 173.84-23.35 174.79-23.35L174.79-23.35Q176.69-23.35 176.69-21.15L176.69-21.15Q176.69-20.3 175.96-19.63 175.24-18.95 174.39-18.8L174.39-18.8 167.39-18.1ZM197.83-2.6Q197.93-1.3 198.18-0.25L198.18-0.25Q198.08 0.05 197.31 0.35 196.53 0.65 195.98 0.65L195.98 0.65Q194.18 0.65 193.41 0.13 192.63-0.4 192.63-1.45L192.63-1.45Q192.63-2.45 192.83-3.45L192.83-3.45Q191.73-1.95 189.61-0.98 187.48 0 186.18 0L186.18 0Q182.83 0 180.61-1.95 178.38-3.9 178.38-8.2L178.38-8.2Q178.38-12.25 180.31-15.83 182.23-19.4 185.63-21.58 189.03-23.75 193.18-23.75L193.18-23.75Q193.98-23.75 195.28-23.33 196.58-22.9 197.91-21.88 199.23-20.85 200.13-19.25L200.13-19.25Q200.53-19.25 201.08-18.85 201.63-18.45 201.63-18.05L201.63-18.05Q201.63-17.6 201.48-17.15L201.48-17.15 197.83-2.6ZM195.58-16.6Q195.28-17.7 194.41-18.45 193.53-19.2 192.83-19.2L192.83-19.2Q190.53-19.2 188.51-17.57 186.48-15.95 185.23-13.55 183.98-11.15 183.98-9L183.98-9Q183.98-6.9 184.48-5.55 184.98-4.2 186.43-4.2L186.43-4.2Q187.68-4.2 189.31-4.95 190.93-5.7 192.21-6.98 193.48-8.25 193.88-9.65L193.88-9.65 195.58-16.6ZM216.33-16.9L211.78 1.7Q211.38 2.5 210.51 3.1 209.63 3.7 208.63 3.7L208.63 3.7Q207.73 3.7 206.81 3.03 205.88 2.35 205.88 1.25L205.88 1.25 205.88 0.95 210.13-16.4 205.48-16Q203.93-16 203.93-17.55L203.93-17.55Q203.93-18.8 204.83-20.05L204.83-20.05Q204.98-20.25 211.38-20.95L211.38-20.95 212.28-25.1Q213.48-30.3 216.11-32.98 218.73-35.65 223.53-35.65L223.53-35.65Q225.83-35.65 227.53-34.65 229.23-33.65 230.08-32.1 230.93-30.55 230.93-28.95L230.93-28.95Q230.93-27.7 230.36-26.95 229.78-26.2 227.98-26.2L227.98-26.2Q227.33-26.2 227.06-26.6 226.78-27 226.48-27.95L226.48-27.95Q226.13-29.2 225.53-29.9 224.93-30.6 223.43-30.6L223.43-30.6Q221.73-30.6 220.56-29.68 219.38-28.75 219.03-27.45L219.03-27.45 217.48-21.55 220.53-21.85Q222.53-22.05 222.68-22.05L222.68-22.05Q224.58-22.05 224.58-19.85L224.58-19.85Q224.58-19 223.86-18.32 223.13-17.65 222.28-17.5L222.28-17.5 216.33-16.9ZM238.48-16.9L233.93 1.7Q233.53 2.5 232.65 3.1 231.78 3.7 230.78 3.7L230.78 3.7Q229.88 3.7 228.95 3.03 228.03 2.35 228.03 1.25L228.03 1.25 228.03 0.95 232.28-16.4 227.63-16Q226.08-16 226.08-17.55L226.08-17.55Q226.08-18.8 226.98-20.05L226.98-20.05Q227.13-20.25 233.53-20.95L233.53-20.95 234.43-25.1Q235.63-30.3 238.25-32.98 240.88-35.65 245.68-35.65L245.68-35.65Q247.98-35.65 249.68-34.65 251.38-33.65 252.23-32.1 253.08-30.55 253.08-28.95L253.08-28.95Q253.08-27.7 252.5-26.95 251.93-26.2 250.13-26.2L250.13-26.2Q249.48-26.2 249.2-26.6 248.93-27 248.63-27.95L248.63-27.95Q248.28-29.2 247.68-29.9 247.08-30.6 245.58-30.6L245.58-30.6Q243.88-30.6 242.7-29.68 241.53-28.75 241.18-27.45L241.18-27.45 239.63-21.55 242.68-21.85Q244.68-22.05 244.83-22.05L244.83-22.05Q246.73-22.05 246.73-19.85L246.73-19.85Q246.73-19 246-18.32 245.28-17.65 244.43-17.5L244.43-17.5 238.48-16.9Z" opacity="1" transform="matrix(1,0,0,1,0,0)" fill="#000000" class="wordmark-text-0" data-fill-palette-color="quaternary" id="text-0"></path></svg></g></svg></g><g transform="matrix(1,0,0,1,0,44.3574357238065)"><svg viewBox="0 0 213.1584412271571 22.177354205819398" height="22.177354205819398" width="213.1584412271571"><g transform="matrix(1,0,0,1,0,0)"><svg width="213.1584412271571" viewBox="-1.75 -43.6 610.81 63.550000000000004" height="22.177354205819398" data-palette-color="#d1abff"><path d="M-1.45 0Q-1.6 0-1.68-0.15-1.75-0.3-1.75-0.45L-1.75-0.45Q-1.75-1.1-1.2-1.98-0.65-2.85 0.18-3.48 1-4.1 1.75-4.1L1.75-4.1 2.9-4.1Q3.6-5 4.08-6.18 4.55-7.35 4.9-9.55L4.9-9.55 7.95-27.35Q8.25-29.4 9.2-31.2 10.15-33 12.05-34.85L12.05-34.85Q15.4-38.2 19.45-38.2L19.45-38.2Q20.45-38.2 21.48-38.02 22.5-37.85 23.15-37.5L23.15-37.5Q23.75-37.15 23.75-36.9L23.75-36.9Q23.75-36.45 22.6-35.9 21.45-35.35 20.75-35.35L20.75-35.35Q20.55-35.35 19.65-35.6 18.75-35.85 17.8-35.85L17.8-35.85Q16.05-35.85 14.5-34.65L14.5-34.65Q13.5-33.85 12.88-32.3 12.25-30.75 11.8-28.35L11.8-28.35 8.1-7.45Q7.9-6.4 7.45-5.43 7-4.45 6.4-3.9L6.4-3.9 6.4-3.85Q7.35-3.65 9.85-3.48 12.35-3.3 13.75-3.3L13.75-3.3Q18.1-3.3 21.65-5.4L21.65-5.4Q22.1-5.7 22.3-5.7L22.3-5.7Q22.65-5.7 22.65-5.15L22.65-5.15Q22.65-4.2 21.28-2.98 19.9-1.75 17.57-0.88 15.25 0 12.65 0L12.65 0Q11.4 0 8-0.4L8-0.4Q7.5-0.45 5.75-0.65 4-0.85 2.6-0.85L2.6-0.85Q1.15-0.85 0.43-0.68-0.3-0.5-0.78-0.25-1.25 0-1.45 0L-1.45 0ZM45.82 0.5Q43.57 0.5 42.25-1.23 40.92-2.95 40.92-6L40.92-6Q40.92-9.7 42.7-13.93 44.47-18.15 47.27-20.98 50.07-23.8 52.92-23.8L52.92-23.8Q55.52-23.8 55.52-20.65L55.52-20.65Q55.52-18.1 54.02-15.65 52.52-13.2 50-11.33 47.47-9.45 44.47-8.45L44.47-8.45Q44.47-5.75 45.35-4.55 46.22-3.35 47.92-3.35L47.92-3.35Q49.72-3.35 51.22-4.5 52.72-5.65 53.77-7.65L53.77-7.65Q53.92-7.95 54.07-8.15 54.22-8.35 54.47-8.35L54.47-8.35Q54.87-8.35 54.87-7.75L54.87-7.75Q54.87-6.4 53.52-4.4 52.17-2.4 50.07-0.95 47.97 0.5 45.82 0.5L45.82 0.5ZM46.07-11.1Q47.37-11.1 48.85-12.03 50.32-12.95 51.32-14.55 52.32-16.15 52.32-18.15L52.32-18.15Q52.32-20.5 50.67-20.5L50.67-20.5Q49.32-20.5 48.1-19.05 46.87-17.6 46.05-15.45 45.22-13.3 44.92-11.3L44.92-11.3Q45.22-11.1 46.07-11.1L46.07-11.1ZM79.24 0.5Q77.74 0.5 77.14-0.53 76.54-1.55 76.54-3.3L76.54-3.3Q76.54-4.6 76.77-6.08 76.99-7.55 77.04-7.85L77.04-7.85 79.09-20.7 74.04-20.7Q73.79-20.7 73.79-20.95L73.79-20.95Q73.79-21.45 74.89-22.38 75.99-23.3 76.49-23.3L76.49-23.3 79.49-23.3 79.99-26.4Q80.19-28.05 81.54-29.35 82.89-30.65 84.24-30.65L84.24-30.65Q84.49-30.65 84.49-30.4L84.49-30.4Q84.49-30.2 84.04-29.23 83.59-28.25 83.39-27.15L83.39-27.15 82.79-23.3 87.69-23.3Q87.99-23.3 87.99-23L87.99-23Q87.99-22.6 86.82-21.65 85.64-20.7 85.29-20.7L85.29-20.7 82.49-20.7 80.44-7.95Q80.39-7.6 80.17-6.25 79.94-4.9 79.94-4.15L79.94-4.15Q79.94-2.5 81.04-2.5L81.04-2.5Q81.84-2.5 82.74-3.28 83.64-4.05 84.34-5.45L84.34-5.45Q84.39-5.55 84.47-5.65 84.54-5.75 84.64-5.75L84.64-5.75Q84.89-5.75 84.89-5.1L84.89-5.1Q84.89-4.1 84.02-2.75 83.14-1.4 81.82-0.45 80.49 0.5 79.24 0.5L79.24 0.5ZM127.03 19.95Q124.33 19.95 122.18 18.53 120.03 17.1 119.18 14.55L119.18 14.55Q119.08 14.15 119.08 13.9L119.08 13.9Q119.08 12.95 119.76 12.08 120.43 11.2 121.28 10.85L121.28 10.85 121.68 10.75Q121.88 10.75 121.93 11 121.98 11.25 121.98 11.3L121.98 11.3Q122.38 14.45 124.01 16.1 125.63 17.75 128.33 17.75L128.33 17.75Q131.43 17.75 133.33 14.83 135.23 11.9 136.18 5.65L136.18 5.65 139.68-16.85Q139.98-18.65 139.98-19.4L139.98-19.4Q139.98-20.15 139.58-20.15L139.58-20.15Q139.13-20.15 138.43-19.4 137.73-18.65 137.13-17.65L137.13-17.65Q136.93-17.35 136.68-16.93 136.43-16.5 136.28-16.38 136.13-16.25 135.98-16.25L135.98-16.25Q135.68-16.25 135.68-16.8L135.68-16.8Q135.68-17.7 136.78-19.43 137.88-21.15 139.36-22.48 140.83-23.8 141.93-23.8L141.93-23.8Q142.83-23.8 143.26-23.13 143.68-22.45 143.58-21.35L143.58-21.35Q143.43-19.85 142.93-16.85L142.93-16.85Q142.63-15.15 142.53-14.5L142.53-14.5 142.58-14.5Q144.53-18.05 147.26-20.93 149.98-23.8 151.98-23.8L151.98-23.8Q153.43-23.8 153.98-22.35 154.53-20.9 154.53-17.75L154.53-17.75Q154.53-13.45 152.58-9.18 150.63-4.9 147.56-2.2 144.48 0.5 141.23 0.5L141.23 0.5Q140.78 0.5 140.38 0.35L140.38 0.35 139.53 5.35Q138.78 9.65 137.01 12.98 135.23 16.3 132.66 18.13 130.08 19.95 127.03 19.95L127.03 19.95ZM144.13-2.5Q146.03-2.5 147.58-4.78 149.13-7.05 150.01-10.38 150.88-13.7 150.88-16.6L150.88-16.6Q150.88-18.25 150.63-18.98 150.38-19.7 149.83-19.7L149.83-19.7Q148.48-19.7 146.63-17.6 144.78-15.5 143.28-12.4 141.78-9.3 141.38-6.5L141.38-6.5 140.88-3.4Q141.68-2.9 142.43-2.7 143.18-2.5 144.13-2.5L144.13-2.5ZM174.3 0.5Q174.1 0.5 173.98 0.43 173.85 0.35 173.85 0.25L173.85 0.25Q173.85 0.1 174.15-0.4 174.45-0.9 174.6-1.8L174.6-1.8Q174.8-2.85 174.95-3.73 175.1-4.6 175.25-5.35L175.25-5.35Q176.5-12.2 176.93-14.93 177.35-17.65 177.3-18.9L177.3-18.9Q177.3-19.55 177.2-19.85 177.1-20.15 176.75-20.15L176.75-20.15Q176.3-20.15 175.6-19.4 174.9-18.65 174.3-17.65L174.3-17.65Q174.05-17.2 173.85-16.88 173.65-16.55 173.53-16.4 173.4-16.25 173.25-16.25L173.25-16.25Q173.05-16.25 172.95-16.4 172.85-16.55 172.85-16.8L172.85-16.8Q172.85-17.75 173.93-19.45 175-21.15 176.48-22.48 177.95-23.8 179.1-23.8L179.1-23.8Q180.05-23.8 180.43-23.05 180.8-22.3 180.8-20.7L180.8-20.7Q180.8-18.5 179.85-14.75L179.85-14.75 179.95-14.75Q184.7-23.8 188.75-23.8L188.75-23.8Q189.8-23.8 190.38-23.23 190.95-22.65 190.95-21.6L190.95-21.6Q190.95-20.5 190.48-19.35 190-18.2 189.33-17.45 188.65-16.7 188.1-16.7L188.1-16.7Q187.75-16.7 187.85-17.15L187.85-17.15Q188-17.85 188-18.25L188-18.25Q188-19.45 186.7-19.45L186.7-19.45Q185.15-19.45 183.6-17.65 182.05-15.85 180.88-13.25 179.7-10.65 179.25-8.5L179.25-8.5Q178.65-6.2 178.5-3.7L178.5-3.7Q178.4-2.75 177.63-1.78 176.85-0.8 175.85-0.15 174.85 0.5 174.3 0.5L174.3 0.5ZM209.97 0.5Q207.87 0.5 206.8-1.13 205.72-2.75 205.72-5.65L205.72-5.65Q205.72-9.7 207.67-13.95 209.62-18.2 212.5-21 215.37-23.8 217.97-23.8L217.97-23.8Q219.92-23.8 220.97-22.08 222.02-20.35 222.02-17.55L222.02-17.55Q222.02-13.8 220.2-9.55 218.37-5.3 215.57-2.4 212.77 0.5 209.97 0.5L209.97 0.5ZM212.42-2.8Q214.07-2.8 215.42-4.48 216.77-6.15 217.57-8.93 218.37-11.7 218.37-14.8L218.37-14.8Q218.37-20.5 215.42-20.5L215.42-20.5Q213.57-20.5 212.2-18.5 210.82-16.5 210.1-13.63 209.37-10.75 209.37-8.25L209.37-8.25Q209.37-5.85 210.1-4.33 210.82-2.8 212.42-2.8L212.42-2.8ZM242.89 0.5Q241.34 0.5 240.24-0.35 239.14-1.2 238.79-2.6L238.79-2.6Q238.69-3 239.12-3.88 239.54-4.75 240.24-5.6L240.24-5.6Q240.64-6.05 240.89-6.05L240.89-6.05Q241.14-6.05 241.29-5.65L241.29-5.65Q242.79-2.15 245.44-2.15L245.44-2.15Q246.79-2.15 247.57-2.98 248.34-3.8 248.34-5.2L248.34-5.2Q248.34-7.1 246.19-10.1L246.19-10.1 245.14-11.6Q243.94-13.3 243.47-14.4 242.99-15.5 242.99-16.75L242.99-16.75Q242.99-18.75 244.07-20.35 245.14-21.95 246.89-22.88 248.64-23.8 250.54-23.8L250.54-23.8Q254.14-23.8 254.14-21.35L254.14-21.35Q254.14-20.45 253.49-19.55L253.49-19.55Q253.14-18.95 252.89-18.95L252.89-18.95Q252.59-18.95 252.34-19.55L252.34-19.55Q251.79-20.5 251.02-20.93 250.24-21.35 249.04-21.35L249.04-21.35Q247.64-21.35 246.79-20.6 245.94-19.85 245.94-18.7L245.94-18.7Q245.94-18.05 246.37-17.23 246.79-16.4 247.99-14.7L247.99-14.7 249.04-13.25Q250.44-11.4 250.99-10.08 251.54-8.75 251.54-7.3L251.54-7.3Q251.54-5.45 250.34-3.63 249.14-1.8 247.14-0.65 245.14 0.5 242.89 0.5L242.89 0.5ZM302.38 0.5Q302.03 0.5 302.03 0.25L302.03 0.25Q302.08-0.05 302.36-1.03 302.63-2 302.83-3L302.83-3Q303.13-4.35 304.88-14.85L304.88-14.85Q304.78-14.3 306.13-22.45L306.13-22.45Q307.08-28.15 308.71-32.65 310.33-37.15 313.23-40L313.23-40Q314.88-41.55 316.41-42.18 317.93-42.8 319.68-43.05L319.68-43.05Q320.28-43.1 320.93-43.35 321.58-43.6 321.68-43.6L321.68-43.6Q322.03-43.6 322.03-43.2L322.03-43.2Q322.03-42.65 321.13-41.75L321.13-41.75Q320.68-41.3 320.28-41.15 319.88-41 319.46-40.95 319.03-40.9 318.78-40.85L318.78-40.85Q317.38-40.65 316.41-40.08 315.43-39.5 314.38-38.25L314.38-38.25Q312.38-35.75 311.46-32.48 310.53-29.2 309.73-24.25L309.73-24.25Q309.53-22.65 309.38-21.9L309.38-21.9 308.28-14.9 308.33-14.9Q310.68-18.95 313.43-21.38 316.18-23.8 318.18-23.8L318.18-23.8Q320.28-23.8 320.28-20.75L320.28-20.75Q320.28-19.35 319.88-17.15L319.88-17.15Q318.93-12.4 318.93-12.4L318.93-12.4Q317.48-5.05 317.48-3.95L317.48-3.95Q317.48-3.05 318.18-3.05L318.18-3.05Q319.03-3.05 319.73-4.17 320.43-5.3 321.23-7.15L321.23-7.15Q321.28-7.2 321.41-7.45 321.53-7.7 321.73-7.7L321.73-7.7Q322.08-7.7 322.08-7.1L322.08-7.1 321.98-6.3Q321.63-4.5 320.56-2.93 319.48-1.35 318.16-0.43 316.83 0.5 315.73 0.5L315.73 0.5Q313.93 0.5 313.93-2.35L313.93-2.35Q313.93-3.75 314.26-5.65 314.58-7.55 315.18-10.4L315.18-10.4Q315.78-13.25 316.11-15.05 316.43-16.85 316.48-18.3L316.48-18.3Q316.48-19.25 316.33-19.6 316.18-19.95 315.48-19.95L315.48-19.95Q313.93-19.95 312.16-17.93 310.38-15.9 308.98-12.95 307.58-10 307.08-7.45L307.08-7.45 306.28-3.1Q306.08-1.8 304.78-0.65 303.48 0.5 302.38 0.5L302.38 0.5ZM343.35 0.5Q340.8 0.5 340.8-4.35L340.8-4.35Q340.8-9 342.83-13.53 344.85-18.05 348.3-20.93 351.75-23.8 355.75-23.8L355.75-23.8Q357.8-23.8 359.3-23.15L359.3-23.15Q358.65-20.6 358.4-19.4L358.4-19.4 357.35-14Q355.95-7.6 355.65-5.15L355.65-5.15Q355.6-4.8 355.6-4.3L355.6-4.3Q355.6-3.2 356.25-3.2L356.25-3.2Q357.05-3.2 357.75-4.23 358.45-5.25 359.35-7.15L359.35-7.15Q359.4-7.2 359.53-7.45 359.65-7.7 359.85-7.7L359.85-7.7Q360.15-7.7 360.15-7.1L360.15-7.1 360.05-6.3Q359.7-4.65 358.63-3.05 357.55-1.45 356.23-0.48 354.9 0.5 353.85 0.5L353.85 0.5Q352.1 0.5 352.1-2.35L352.1-2.35Q352.1-3.45 352.35-4.6L352.35-4.6 353.2-8.95 353.15-8.95Q350.75-4.75 348.03-2.13 345.3 0.5 343.35 0.5L343.35 0.5ZM345.7-3.6Q347.1-3.6 348.93-5.78 350.75-7.95 352.33-11.1 353.9-14.25 354.5-16.75L354.5-16.75 355.3-19.95Q353.8-20.95 352.15-20.95L352.15-20.95Q350-20.95 348.23-18.48 346.45-16 345.45-12.48 344.45-8.95 344.45-6.1L344.45-6.1Q344.45-4.85 344.73-4.23 345-3.6 345.7-3.6L345.7-3.6ZM380.07 0.5Q379.62 0.5 379.62 0.2L379.62 0.2Q379.62 0 379.85-0.68 380.07-1.35 380.47-3L380.47-3Q381.47-7.15 382.87-16.85L382.87-16.85Q383.17-18.75 383.17-19.5L383.17-19.5Q383.17-20.15 382.87-20.15L382.87-20.15Q382.02-20.15 380.32-17.15L380.32-17.15Q380.07-16.7 379.87-16.38 379.67-16.05 379.55-15.9 379.42-15.75 379.27-15.75L379.27-15.75Q378.87-15.75 378.87-16.25L378.87-16.25Q378.87-17.25 379.97-19.1 381.07-20.95 382.57-22.38 384.07-23.8 385.27-23.8L385.27-23.8Q386.07-23.8 386.42-23.1 386.77-22.4 386.77-21.35L386.77-21.35Q386.77-19.7 385.97-14.9L385.97-14.9 386.02-14.9Q388.32-18.95 391.07-21.38 393.82-23.8 395.82-23.8L395.82-23.8Q397.92-23.8 397.92-20.85L397.92-20.85Q397.92-19.75 397.47-17.15L397.47-17.15 396.32-11.15Q395.07-4.8 395.07-3.95L395.07-3.95Q395.07-3.6 395.25-3.33 395.42-3.05 395.82-3.05L395.82-3.05Q397.17-3.05 398.92-7.15L398.92-7.15Q399.07-7.7 399.42-7.7L399.42-7.7Q399.72-7.7 399.72-7.1L399.72-7.1Q399.72-6.65 399.67-6.3L399.67-6.3Q399.32-4.5 398.22-2.93 397.12-1.35 395.77-0.43 394.42 0.5 393.32 0.5L393.32 0.5Q392.27 0.5 391.9-0.38 391.52-1.25 391.52-2.3L391.52-2.3Q391.52-4.55 392.77-10.4L392.77-10.4Q393.97-16.1 394.07-18.3L394.07-18.3Q394.12-19.2 393.95-19.58 393.77-19.95 393.12-19.95L393.12-19.95Q391.57-19.95 389.8-17.9 388.02-15.85 386.62-12.88 385.22-9.9 384.77-7.45L384.77-7.45 383.97-3.1Q383.67-1.8 382.37-0.65 381.07 0.5 380.07 0.5L380.07 0.5ZM421.04 0.5Q418.49 0.5 418.49-4.4L418.49-4.4Q418.49-8.95 420.49-13.48 422.49-18 425.89-20.9 429.29-23.8 433.19-23.8L433.19-23.8 433.69-23.8Q435.34-30.7 436.79-34.2 438.24-37.7 440.64-40L440.64-40Q442.24-41.5 443.54-42.05 444.84-42.6 447.09-43.05L447.09-43.05Q448.09-43.25 448.52-43.43 448.94-43.6 449.09-43.6L449.09-43.6Q449.44-43.6 449.44-43.2L449.44-43.2Q449.44-42.55 448.49-41.75L448.49-41.75Q447.99-41.3 447.57-41.15 447.14-41 446.74-40.95 446.34-40.9 446.14-40.85L446.14-40.85Q443.54-40.5 441.74-38.25L441.74-38.25Q440.39-36.5 439.37-33.25 438.34-30 436.59-21.9L436.59-21.9Q433.69-7.9 433.34-5.15L433.34-5.15Q433.29-4.8 433.29-4.3L433.29-4.3Q433.29-3.2 433.94-3.2L433.94-3.2Q434.74-3.2 435.47-4.28 436.19-5.35 436.99-7.15L436.99-7.15Q437.29-7.7 437.54-7.7L437.54-7.7Q437.84-7.7 437.84-7.15L437.84-7.15 437.74-6.3Q437.34-4.55 436.27-2.98 435.19-1.4 433.87-0.45 432.54 0.5 431.44 0.5L431.44 0.5Q429.84 0.5 429.84-2.15L429.84-2.15Q429.84-3.15 430.04-4.55L430.04-4.55 430.89-8.95 430.84-8.95Q428.99-5.75 426.14-2.63 423.29 0.5 421.04 0.5L421.04 0.5ZM423.39-3.6Q424.79-3.6 426.62-5.78 428.44-7.95 430.02-11.1 431.59-14.25 432.19-16.75L432.19-16.75 432.99-19.95Q431.49-20.95 429.84-20.95L429.84-20.95Q427.69-20.95 425.92-18.48 424.14-16 423.14-12.48 422.14-8.95 422.14-6.1L422.14-6.1Q422.14-4.85 422.42-4.23 422.69-3.6 423.39-3.6L423.39-3.6ZM459.36 0.5Q458.41 0.5 457.99-0.43 457.56-1.35 457.56-2.75L457.56-2.75Q457.56-3.7 457.76-5L457.76-5 460.71-24.7Q461.76-31.5 463.26-35.2 464.76-38.9 466.86-40.55L466.86-40.55Q468.06-41.5 469.36-41.95 470.66-42.4 473.36-43.05L473.36-43.05Q474.61-43.3 474.96-43.45 475.31-43.6 475.41-43.6L475.41-43.6Q475.76-43.6 475.76-43.2L475.76-43.2Q475.76-43 475.54-42.6 475.31-42.2 474.81-41.75L474.81-41.75Q474.26-41.25 473.76-41.08 473.26-40.9 472.56-40.85L472.56-40.85Q469.66-40.55 468.36-39.05L468.36-39.05Q465.91-36.25 464.76-28.7L464.76-28.7 461.11-5.15Q461.06-4.8 461.06-4.3L461.06-4.3Q461.06-3.2 461.71-3.2L461.71-3.2Q463.21-3.2 465.21-7.65L465.21-7.65Q465.41-8.2 465.76-8.2L465.76-8.2Q466.11-8.2 466.11-7.5L466.11-7.5Q466.11-5.85 464.94-3.95 463.76-2.05 462.16-0.78 460.56 0.5 459.36 0.5L459.36 0.5ZM489.73 0.5Q487.48 0.5 486.16-1.23 484.83-2.95 484.83-6L484.83-6Q484.83-9.7 486.61-13.93 488.38-18.15 491.18-20.98 493.98-23.8 496.83-23.8L496.83-23.8Q499.43-23.8 499.43-20.65L499.43-20.65Q499.43-18.1 497.93-15.65 496.43-13.2 493.91-11.33 491.38-9.45 488.38-8.45L488.38-8.45Q488.38-5.75 489.26-4.55 490.13-3.35 491.83-3.35L491.83-3.35Q493.63-3.35 495.13-4.5 496.63-5.65 497.68-7.65L497.68-7.65Q497.83-7.95 497.98-8.15 498.13-8.35 498.38-8.35L498.38-8.35Q498.78-8.35 498.78-7.75L498.78-7.75Q498.78-6.4 497.43-4.4 496.08-2.4 493.98-0.95 491.88 0.5 489.73 0.5L489.73 0.5ZM489.98-11.1Q491.28-11.1 492.76-12.03 494.23-12.95 495.23-14.55 496.23-16.15 496.23-18.15L496.23-18.15Q496.23-20.5 494.58-20.5L494.58-20.5Q493.23-20.5 492.01-19.05 490.78-17.6 489.96-15.45 489.13-13.3 488.83-11.3L488.83-11.3Q489.13-11.1 489.98-11.1L489.98-11.1ZM554.02-26.65Q553.52-26.65 553.57-27.15L553.57-27.15 554.17-30.65Q554.42-32.1 555.25-32.88 556.07-33.65 557.32-33.65L557.32-33.65 557.52-33.65Q557.82-33.65 557.9-33.55 557.97-33.45 557.92-33.15L557.92-33.15 557.37-29.7Q557.17-28.3 556.32-27.48 555.47-26.65 554.22-26.65L554.22-26.65 554.02-26.65ZM551.07 0.5Q549.47 0.5 549.47-1.8L549.47-1.8Q549.47-2.95 549.77-4.45L549.77-4.45 552.17-17.8Q552.37-19.1 552.37-19.4L552.37-19.4Q552.37-20.15 551.92-20.15L551.92-20.15Q551.32-20.15 550.47-19.2 549.62-18.25 548.62-16.2L548.62-16.2Q548.42-15.6 548.12-15.6L548.12-15.6Q547.82-15.6 547.82-16.1L547.82-16.1Q547.82-17.3 548.9-19.18 549.97-21.05 551.55-22.43 553.12-23.8 554.47-23.8L554.47-23.8Q556.02-23.8 556.02-21.6L556.02-21.6Q556.02-20.55 555.72-18.85L555.72-18.85 553.12-4.4 553.02-3.75Q553.02-3.2 553.47-3.2L553.47-3.2Q554.07-3.2 554.92-4.17 555.77-5.15 556.77-7.15L556.77-7.15Q557.02-7.7 557.27-7.7L557.27-7.7Q557.57-7.7 557.57-7.05L557.57-7.05Q557.57-5.9 556.5-4.08 555.42-2.25 553.87-0.88 552.32 0.5 551.07 0.5L551.07 0.5ZM581.24 0.5Q579.74 0.5 579.14-0.53 578.54-1.55 578.54-3.3L578.54-3.3Q578.54-4.6 578.77-6.08 578.99-7.55 579.04-7.85L579.04-7.85 581.09-20.7 576.04-20.7Q575.79-20.7 575.79-20.95L575.79-20.95Q575.79-21.45 576.89-22.38 577.99-23.3 578.49-23.3L578.49-23.3 581.49-23.3 581.99-26.4Q582.19-28.05 583.54-29.35 584.89-30.65 586.24-30.65L586.24-30.65Q586.49-30.65 586.49-30.4L586.49-30.4Q586.49-30.2 586.04-29.23 585.59-28.25 585.39-27.15L585.39-27.15 584.79-23.3 589.69-23.3Q589.99-23.3 589.99-23L589.99-23Q589.99-22.6 588.82-21.65 587.64-20.7 587.29-20.7L587.29-20.7 584.49-20.7 582.44-7.95Q582.39-7.6 582.17-6.25 581.94-4.9 581.94-4.15L581.94-4.15Q581.94-2.5 583.04-2.5L583.04-2.5Q583.84-2.5 584.74-3.28 585.64-4.05 586.34-5.45L586.34-5.45Q586.39-5.55 586.47-5.65 586.54-5.75 586.64-5.75L586.64-5.75Q586.89-5.75 586.89-5.1L586.89-5.1Q586.89-4.1 586.02-2.75 585.14-1.4 583.82-0.45 582.49 0.5 581.24 0.5L581.24 0.5ZM605.61 0.5Q604.91 0.5 604.49-0.03 604.06-0.55 604.06-1.35L604.06-1.35Q604.06-2.7 605.21-3.95 606.36-5.2 607.51-5.2L607.51-5.2Q608.16-5.2 608.61-4.67 609.06-4.15 609.06-3.35L609.06-3.35Q609.06-2.05 607.91-0.78 606.76 0.5 605.61 0.5L605.61 0.5Z" opacity="1" transform="matrix(1,0,0,1,0,0)" fill="#000000" class="slogan-text-1" data-fill-palette-color="quaternary" id="text-1"></path></svg></g></svg></g></svg></g></svg></g><g transform="matrix(1,0,0,1,45.288937737208805,0)"><svg viewBox="0 0 122.5805657527395 91.951079682743" height="91.951079682743" width="122.5805657527395"><g><svg xmlns="http://www.w3.org/2000/svg" xmlns:xlink="http://www.w3.org/1999/xlink" version="1.1" x="0" y="0" viewBox="-0.01185306090647753 11.865918369253992 95.01592890424183 71.27408163074601" style="enable-background:new 0 0 95 95;" xml:space="preserve" width="122.5805657527395" height="91.951079682743" class="icon-icon-0" data-fill-palette-color="quaternary" id="icon-0"><path d="M94.83 71.77c-0.35-1.32-1.19-2.41-2.37-3.09l-16.71-9.65c-1.17-0.68-2.54-0.86-3.86-0.5-1.32 0.35-2.41 1.19-3.09 2.37l-0.69 1.19-11.7-6.75c3.4-6.6 4.21-14.12 2.27-21.34-2.06-7.7-7-14.14-13.91-18.12-6.91-3.99-14.95-5.05-22.65-2.98-7.7 2.06-14.14 7-18.12 13.91s-5.05 14.95-2.98 22.65 7 14.14 13.91 18.12c4.6 2.66 9.7 4.01 14.87 4.01 2.59 0 5.2-0.34 7.77-1.03 7.22-1.93 13.33-6.4 17.35-12.64l11.7 6.75-0.69 1.19v0c-1.4 2.43-0.57 5.55 1.86 6.95l16.71 9.65c0.8 0.46 1.67 0.68 2.53 0.68 1.76 0 3.48-0.91 4.42-2.54l2.86-4.96C95 74.46 95.18 73.09 94.83 71.77zM36.81 67.68c-6.93 1.86-14.18 0.9-20.4-2.68-6.22-3.59-10.67-9.39-12.52-16.32-1.86-6.93-0.9-14.18 2.69-20.4 3.59-6.22 9.39-10.67 16.32-12.52 2.32-0.62 4.67-0.93 7-0.93 4.66 0 9.25 1.22 13.4 3.61 6.22 3.59 10.67 9.39 12.52 16.32 1.86 6.93 0.9 14.18-2.69 20.4C49.54 61.38 43.74 65.82 36.81 67.68zM91.75 74.15l-2.86 4.96c-0.59 1.01-1.89 1.36-2.9 0.78l-16.71-9.65c-1.01-0.58-1.36-1.88-0.78-2.9l2.86-4.96c0.28-0.49 0.74-0.84 1.29-0.99 0.55-0.14 1.12-0.07 1.61 0.21l16.71 9.65c0.49 0.28 0.84 0.74 0.98 1.29C92.1 73.09 92.03 73.66 91.75 74.15zM37.66 41.8l-0.83-0.53-0.81 0.56c-1.82 1.25-3.95 1.91-6.17 1.91s-4.35-0.66-6.17-1.91l-0.81-0.56-0.83 0.53c-4.22 2.69-6.74 7.28-6.74 12.27l0.05 1.79h29l0.05-1.79C44.4 49.07 41.88 44.48 37.66 41.8zM18.33 52.89c0.32-3.21 1.96-6.12 4.54-8.07 4.23 2.47 9.72 2.47 13.95 0 2.59 1.95 4.22 4.86 4.54 8.07H18.33zM29.85 40.72c3.62 0 6.57-2.95 6.57-6.57s-2.95-6.57-6.57-6.57c-3.63 0-6.58 2.95-6.58 6.57S26.23 40.72 29.85 40.72zM29.85 30.54c1.99 0 3.61 1.62 3.61 3.61s-1.62 3.61-3.61 3.61c-1.99 0-3.61-1.62-3.61-3.61S27.86 30.54 29.85 30.54z" fill="#000000" data-fill-palette-color="quaternary"></path></svg></g></svg></g><g></g></svg></g></svg></g></svg></g></svg></g><defs></defs></svg><rect width="342.85155851775386" height="342.85155851775386" fill="none" stroke="none" visibility="hidden"></rect></g></svg></g></svg>